<mxfile host="app.diagrams.net" modified="2024-04-19T00:50:10.068Z" agent="Mozilla/5.0 (Windows NT 10.0; Win64; x64) AppleWebKit/537.36 (KHTML, like Gecko) Chrome/123.0.0.0 Safari/537.36 Edg/123.0.0.0" etag="77ZIqvk6DlwfCqel5NYx" version="24.2.5" type="device">
  <diagram id="C5RBs43oDa-KdzZeNtuy" name="Page-1">
    <mxGraphModel dx="1097" dy="988" grid="1" gridSize="10" guides="1" tooltips="1" connect="1" arrows="1" fold="1" page="1" pageScale="1" pageWidth="1169" pageHeight="827" math="0" shadow="0">
      <root>
        <mxCell id="WIyWlLk6GJQsqaUBKTNV-0" />
        <mxCell id="WIyWlLk6GJQsqaUBKTNV-1" parent="WIyWlLk6GJQsqaUBKTNV-0" />
        <mxCell id="3ddIMWpMPB3YDMcvdjUU-0" value="Room" style="swimlane;fontStyle=1;align=center;verticalAlign=top;childLayout=stackLayout;horizontal=1;startSize=26;horizontalStack=0;resizeParent=1;resizeParentMax=0;resizeLast=0;collapsible=1;marginBottom=0;whiteSpace=wrap;html=1;" parent="WIyWlLk6GJQsqaUBKTNV-1" vertex="1">
          <mxGeometry x="240" y="40" width="160" height="150" as="geometry" />
        </mxCell>
        <mxCell id="3ddIMWpMPB3YDMcvdjUU-1" value="-myItems : RoomItem[]&lt;div&gt;-myDoors : Directions&lt;/div&gt;" style="text;strokeColor=none;fillColor=none;align=left;verticalAlign=top;spacingLeft=4;spacingRight=4;overflow=hidden;rotatable=0;points=[[0,0.5],[1,0.5]];portConstraint=eastwest;whiteSpace=wrap;html=1;" parent="3ddIMWpMPB3YDMcvdjUU-0" vertex="1">
          <mxGeometry y="26" width="160" height="44" as="geometry" />
        </mxCell>
        <mxCell id="3ddIMWpMPB3YDMcvdjUU-2" value="" style="line;strokeWidth=1;fillColor=none;align=left;verticalAlign=middle;spacingTop=-1;spacingLeft=3;spacingRight=3;rotatable=0;labelPosition=right;points=[];portConstraint=eastwest;strokeColor=inherit;" parent="3ddIMWpMPB3YDMcvdjUU-0" vertex="1">
          <mxGeometry y="70" width="160" height="8" as="geometry" />
        </mxCell>
        <mxCell id="3ddIMWpMPB3YDMcvdjUU-3" value="+getItems() : RoomItems&lt;div&gt;+getDoors() : Directions&lt;/div&gt;&lt;div&gt;+toString() : String&lt;/div&gt;" style="text;strokeColor=none;fillColor=none;align=left;verticalAlign=top;spacingLeft=4;spacingRight=4;overflow=hidden;rotatable=0;points=[[0,0.5],[1,0.5]];portConstraint=eastwest;whiteSpace=wrap;html=1;" parent="3ddIMWpMPB3YDMcvdjUU-0" vertex="1">
          <mxGeometry y="78" width="160" height="72" as="geometry" />
        </mxCell>
        <mxCell id="3ddIMWpMPB3YDMcvdjUU-4" value="RoomItem" style="swimlane;fontStyle=0;childLayout=stackLayout;horizontal=1;startSize=26;fillColor=none;horizontalStack=0;resizeParent=1;resizeParentMax=0;resizeLast=0;collapsible=1;marginBottom=0;whiteSpace=wrap;html=1;" parent="WIyWlLk6GJQsqaUBKTNV-1" vertex="1">
          <mxGeometry x="20" y="40" width="140" height="160" as="geometry" />
        </mxCell>
        <mxCell id="3ddIMWpMPB3YDMcvdjUU-5" value="+HealingPotion&lt;div&gt;+VisionPotion&lt;/div&gt;&lt;div&gt;+Pit&lt;/div&gt;&lt;div&gt;+Abstraction&lt;/div&gt;&lt;div&gt;+Encapsulation&lt;/div&gt;&lt;div&gt;+Inheritance&lt;/div&gt;&lt;div&gt;+Polymorphism&lt;/div&gt;&lt;div&gt;+Entrance&lt;/div&gt;&lt;div&gt;+Exit&lt;/div&gt;" style="text;strokeColor=none;fillColor=none;align=left;verticalAlign=top;spacingLeft=4;spacingRight=4;overflow=hidden;rotatable=0;points=[[0,0.5],[1,0.5]];portConstraint=eastwest;whiteSpace=wrap;html=1;" parent="3ddIMWpMPB3YDMcvdjUU-4" vertex="1">
          <mxGeometry y="26" width="140" height="134" as="geometry" />
        </mxCell>
        <mxCell id="3ddIMWpMPB3YDMcvdjUU-8" value="" style="endArrow=diamondThin;endFill=0;endSize=24;html=1;rounded=0;exitX=1;exitY=0.5;exitDx=0;exitDy=0;entryX=-0.003;entryY=0.211;entryDx=0;entryDy=0;entryPerimeter=0;" parent="WIyWlLk6GJQsqaUBKTNV-1" source="3ddIMWpMPB3YDMcvdjUU-5" target="3ddIMWpMPB3YDMcvdjUU-3" edge="1">
          <mxGeometry width="160" relative="1" as="geometry">
            <mxPoint x="120" y="130" as="sourcePoint" />
            <mxPoint x="280" y="130" as="targetPoint" />
          </mxGeometry>
        </mxCell>
        <mxCell id="3ddIMWpMPB3YDMcvdjUU-9" value="Directions" style="swimlane;fontStyle=0;childLayout=stackLayout;horizontal=1;startSize=26;fillColor=none;horizontalStack=0;resizeParent=1;resizeParentMax=0;resizeLast=0;collapsible=1;marginBottom=0;whiteSpace=wrap;html=1;" parent="WIyWlLk6GJQsqaUBKTNV-1" vertex="1">
          <mxGeometry x="470" y="50" width="140" height="100" as="geometry" />
        </mxCell>
        <mxCell id="3ddIMWpMPB3YDMcvdjUU-10" value="+North&lt;div&gt;+East&lt;/div&gt;&lt;div&gt;+South&lt;/div&gt;&lt;div&gt;+West&lt;/div&gt;" style="text;strokeColor=none;fillColor=none;align=left;verticalAlign=top;spacingLeft=4;spacingRight=4;overflow=hidden;rotatable=0;points=[[0,0.5],[1,0.5]];portConstraint=eastwest;whiteSpace=wrap;html=1;" parent="3ddIMWpMPB3YDMcvdjUU-9" vertex="1">
          <mxGeometry y="26" width="140" height="74" as="geometry" />
        </mxCell>
        <mxCell id="3ddIMWpMPB3YDMcvdjUU-13" value="" style="endArrow=diamondThin;endFill=0;endSize=24;html=1;rounded=0;entryX=1.009;entryY=0.095;entryDx=0;entryDy=0;entryPerimeter=0;exitX=0;exitY=0.657;exitDx=0;exitDy=0;exitPerimeter=0;align=center;" parent="WIyWlLk6GJQsqaUBKTNV-1" source="3ddIMWpMPB3YDMcvdjUU-10" target="3ddIMWpMPB3YDMcvdjUU-3" edge="1">
          <mxGeometry width="160" relative="1" as="geometry">
            <mxPoint x="334" y="230" as="sourcePoint" />
            <mxPoint x="494" y="230" as="targetPoint" />
          </mxGeometry>
        </mxCell>
        <mxCell id="3ddIMWpMPB3YDMcvdjUU-14" value="Dungeon" style="swimlane;fontStyle=1;align=center;verticalAlign=top;childLayout=stackLayout;horizontal=1;startSize=26;horizontalStack=0;resizeParent=1;resizeParentMax=0;resizeLast=0;collapsible=1;marginBottom=0;whiteSpace=wrap;html=1;" parent="WIyWlLk6GJQsqaUBKTNV-1" vertex="1">
          <mxGeometry x="505" y="190" width="160" height="86" as="geometry" />
        </mxCell>
        <mxCell id="3ddIMWpMPB3YDMcvdjUU-15" value="+myRooms : Room[][]" style="text;strokeColor=none;fillColor=none;align=left;verticalAlign=top;spacingLeft=4;spacingRight=4;overflow=hidden;rotatable=0;points=[[0,0.5],[1,0.5]];portConstraint=eastwest;whiteSpace=wrap;html=1;" parent="3ddIMWpMPB3YDMcvdjUU-14" vertex="1">
          <mxGeometry y="26" width="160" height="26" as="geometry" />
        </mxCell>
        <mxCell id="3ddIMWpMPB3YDMcvdjUU-16" value="" style="line;strokeWidth=1;fillColor=none;align=left;verticalAlign=middle;spacingTop=-1;spacingLeft=3;spacingRight=3;rotatable=0;labelPosition=right;points=[];portConstraint=eastwest;strokeColor=inherit;" parent="3ddIMWpMPB3YDMcvdjUU-14" vertex="1">
          <mxGeometry y="52" width="160" height="8" as="geometry" />
        </mxCell>
        <mxCell id="3ddIMWpMPB3YDMcvdjUU-17" value="+ method(type): type" style="text;strokeColor=none;fillColor=none;align=left;verticalAlign=top;spacingLeft=4;spacingRight=4;overflow=hidden;rotatable=0;points=[[0,0.5],[1,0.5]];portConstraint=eastwest;whiteSpace=wrap;html=1;" parent="3ddIMWpMPB3YDMcvdjUU-14" vertex="1">
          <mxGeometry y="60" width="160" height="26" as="geometry" />
        </mxCell>
        <mxCell id="3ddIMWpMPB3YDMcvdjUU-18" value="" style="endArrow=diamondThin;endFill=0;endSize=24;html=1;rounded=0;entryX=0;entryY=0.5;entryDx=0;entryDy=0;exitX=0.5;exitY=1.042;exitDx=0;exitDy=0;exitPerimeter=0;" parent="WIyWlLk6GJQsqaUBKTNV-1" source="3ddIMWpMPB3YDMcvdjUU-3" target="3ddIMWpMPB3YDMcvdjUU-15" edge="1">
          <mxGeometry width="160" relative="1" as="geometry">
            <mxPoint x="250" y="150" as="sourcePoint" />
            <mxPoint x="410" y="150" as="targetPoint" />
            <Array as="points">
              <mxPoint x="320" y="229" />
            </Array>
          </mxGeometry>
        </mxCell>
        <mxCell id="3ddIMWpMPB3YDMcvdjUU-32" value="&lt;i&gt;DungeonCharacter&lt;/i&gt;" style="swimlane;fontStyle=1;align=center;verticalAlign=top;childLayout=stackLayout;horizontal=1;startSize=26;horizontalStack=0;resizeParent=1;resizeParentMax=0;resizeLast=0;collapsible=1;marginBottom=0;whiteSpace=wrap;html=1;" parent="WIyWlLk6GJQsqaUBKTNV-1" vertex="1">
          <mxGeometry x="575" y="290" width="160" height="160" as="geometry" />
        </mxCell>
        <mxCell id="3ddIMWpMPB3YDMcvdjUU-33" value="-myName : String&lt;div&gt;-myHealth : int&lt;/div&gt;&lt;div&gt;-myDamageMin : int&lt;/div&gt;&lt;div&gt;-myDamageMax : int&lt;/div&gt;&lt;div&gt;-myAttackSpeed : int&lt;/div&gt;&lt;div&gt;-myChanceToHit : float&lt;/div&gt;" style="text;strokeColor=none;fillColor=none;align=left;verticalAlign=top;spacingLeft=4;spacingRight=4;overflow=hidden;rotatable=0;points=[[0,0.5],[1,0.5]];portConstraint=eastwest;whiteSpace=wrap;html=1;" parent="3ddIMWpMPB3YDMcvdjUU-32" vertex="1">
          <mxGeometry y="26" width="160" height="94" as="geometry" />
        </mxCell>
        <mxCell id="3ddIMWpMPB3YDMcvdjUU-34" value="" style="line;strokeWidth=1;fillColor=none;align=left;verticalAlign=middle;spacingTop=-1;spacingLeft=3;spacingRight=3;rotatable=0;labelPosition=right;points=[];portConstraint=eastwest;strokeColor=inherit;" parent="3ddIMWpMPB3YDMcvdjUU-32" vertex="1">
          <mxGeometry y="120" width="160" height="8" as="geometry" />
        </mxCell>
        <mxCell id="3ddIMWpMPB3YDMcvdjUU-35" value="+ method(type): type" style="text;strokeColor=none;fillColor=none;align=left;verticalAlign=top;spacingLeft=4;spacingRight=4;overflow=hidden;rotatable=0;points=[[0,0.5],[1,0.5]];portConstraint=eastwest;whiteSpace=wrap;html=1;" parent="3ddIMWpMPB3YDMcvdjUU-32" vertex="1">
          <mxGeometry y="128" width="160" height="32" as="geometry" />
        </mxCell>
        <mxCell id="LrkZQNt6ii709Yq8OP7_-0" value="*" style="text;html=1;align=center;verticalAlign=middle;whiteSpace=wrap;rounded=0;" vertex="1" parent="WIyWlLk6GJQsqaUBKTNV-1">
          <mxGeometry x="160" y="120" width="20" height="10" as="geometry" />
        </mxCell>
        <mxCell id="LrkZQNt6ii709Yq8OP7_-2" value="1..4" style="text;html=1;align=center;verticalAlign=middle;whiteSpace=wrap;rounded=0;" vertex="1" parent="WIyWlLk6GJQsqaUBKTNV-1">
          <mxGeometry x="440" y="105" width="30" height="20" as="geometry" />
        </mxCell>
        <mxCell id="LrkZQNt6ii709Yq8OP7_-3" value="16, 25, 36" style="text;html=1;align=center;verticalAlign=middle;whiteSpace=wrap;rounded=0;" vertex="1" parent="WIyWlLk6GJQsqaUBKTNV-1">
          <mxGeometry x="320" y="190" width="60" height="20" as="geometry" />
        </mxCell>
        <mxCell id="LrkZQNt6ii709Yq8OP7_-5" value="&lt;i&gt;Hero&lt;/i&gt;" style="swimlane;fontStyle=1;align=center;verticalAlign=top;childLayout=stackLayout;horizontal=1;startSize=26;horizontalStack=0;resizeParent=1;resizeParentMax=0;resizeLast=0;collapsible=1;marginBottom=0;whiteSpace=wrap;html=1;" vertex="1" parent="WIyWlLk6GJQsqaUBKTNV-1">
          <mxGeometry x="440" y="560" width="160" height="100" as="geometry" />
        </mxCell>
        <mxCell id="LrkZQNt6ii709Yq8OP7_-6" value="-myChanceToBlock : float" style="text;strokeColor=none;fillColor=none;align=left;verticalAlign=top;spacingLeft=4;spacingRight=4;overflow=hidden;rotatable=0;points=[[0,0.5],[1,0.5]];portConstraint=eastwest;whiteSpace=wrap;html=1;" vertex="1" parent="LrkZQNt6ii709Yq8OP7_-5">
          <mxGeometry y="26" width="160" height="26" as="geometry" />
        </mxCell>
        <mxCell id="LrkZQNt6ii709Yq8OP7_-7" value="" style="line;strokeWidth=1;fillColor=none;align=left;verticalAlign=middle;spacingTop=-1;spacingLeft=3;spacingRight=3;rotatable=0;labelPosition=right;points=[];portConstraint=eastwest;strokeColor=inherit;" vertex="1" parent="LrkZQNt6ii709Yq8OP7_-5">
          <mxGeometry y="52" width="160" height="8" as="geometry" />
        </mxCell>
        <mxCell id="LrkZQNt6ii709Yq8OP7_-8" value="+doSpecial() : DungeonCharacter" style="text;strokeColor=none;fillColor=none;align=left;verticalAlign=top;spacingLeft=4;spacingRight=4;overflow=hidden;rotatable=0;points=[[0,0.5],[1,0.5]];portConstraint=eastwest;whiteSpace=wrap;html=1;" vertex="1" parent="LrkZQNt6ii709Yq8OP7_-5">
          <mxGeometry y="60" width="160" height="40" as="geometry" />
        </mxCell>
        <mxCell id="LrkZQNt6ii709Yq8OP7_-14" style="edgeStyle=orthogonalEdgeStyle;rounded=0;orthogonalLoop=1;jettySize=auto;html=1;exitX=0.5;exitY=0;exitDx=0;exitDy=0;" edge="1" parent="WIyWlLk6GJQsqaUBKTNV-1" source="LrkZQNt6ii709Yq8OP7_-9">
          <mxGeometry relative="1" as="geometry">
            <mxPoint x="655" y="450" as="targetPoint" />
          </mxGeometry>
        </mxCell>
        <mxCell id="LrkZQNt6ii709Yq8OP7_-9" value="&lt;i&gt;Monster&lt;/i&gt;" style="swimlane;fontStyle=1;align=center;verticalAlign=top;childLayout=stackLayout;horizontal=1;startSize=26;horizontalStack=0;resizeParent=1;resizeParentMax=0;resizeLast=0;collapsible=1;marginBottom=0;whiteSpace=wrap;html=1;" vertex="1" parent="WIyWlLk6GJQsqaUBKTNV-1">
          <mxGeometry x="705" y="560" width="160" height="60" as="geometry" />
        </mxCell>
        <mxCell id="LrkZQNt6ii709Yq8OP7_-10" value="-myChanceToHeal : float" style="text;strokeColor=none;fillColor=none;align=left;verticalAlign=top;spacingLeft=4;spacingRight=4;overflow=hidden;rotatable=0;points=[[0,0.5],[1,0.5]];portConstraint=eastwest;whiteSpace=wrap;html=1;" vertex="1" parent="LrkZQNt6ii709Yq8OP7_-9">
          <mxGeometry y="26" width="160" height="26" as="geometry" />
        </mxCell>
        <mxCell id="LrkZQNt6ii709Yq8OP7_-11" value="" style="line;strokeWidth=1;fillColor=none;align=left;verticalAlign=middle;spacingTop=-1;spacingLeft=3;spacingRight=3;rotatable=0;labelPosition=right;points=[];portConstraint=eastwest;strokeColor=inherit;" vertex="1" parent="LrkZQNt6ii709Yq8OP7_-9">
          <mxGeometry y="52" width="160" height="8" as="geometry" />
        </mxCell>
        <mxCell id="LrkZQNt6ii709Yq8OP7_-13" style="edgeStyle=orthogonalEdgeStyle;rounded=0;orthogonalLoop=1;jettySize=auto;html=1;exitX=0.5;exitY=0;exitDx=0;exitDy=0;entryX=0.5;entryY=1;entryDx=0;entryDy=0;entryPerimeter=0;" edge="1" parent="WIyWlLk6GJQsqaUBKTNV-1" source="LrkZQNt6ii709Yq8OP7_-5" target="3ddIMWpMPB3YDMcvdjUU-35">
          <mxGeometry relative="1" as="geometry" />
        </mxCell>
      </root>
    </mxGraphModel>
  </diagram>
</mxfile>
